<?xml version="1.0" standalone="no"?>
<!DOCTYPE svg PUBLIC "-//W3C//DTD SVG 20010904//EN"
 "http://www.w3.org/TR/2001/REC-SVG-20010904/DTD/svg10.dtd">
<svg version="1.0" xmlns="http://www.w3.org/2000/svg"
 width="800.000000pt" height="800.000000pt" viewBox="0 0 800.000000 800.000000"
 preserveAspectRatio="xMidYMid meet">

<g transform="translate(0.000000,800.000000) scale(0.100000,-0.100000)"
fill="#000000" stroke="none">
<path d="M6144 6550 l-389 -380 -477 0 -478 0 0 -480 0 -479 -33 -33 c-40 -40
-554 -574 -649 -675 -38 -39 -68 -76 -68 -82 0 -6 12 -18 26 -28 21 -14 33
-15 65 -6 l39 10 -62 -66 c-34 -36 -100 -102 -147 -146 l-84 -80 74 -6 c41 -4
113 -7 162 -8 53 0 87 -5 87 -12 0 -5 17 -17 38 -26 31 -14 107 -18 497 -25
253 -5 593 -7 755 -6 l295 3 68 33 c60 30 103 70 396 365 388 393 436 445 469
515 36 79 41 182 41 817 0 645 -6 773 -38 815 -19 27 -21 42 -21 185 0 85 -3
155 -8 155 -4 0 -215 -208 -470 -463 l-462 -462 0 -478 0 -477 -469 0 -469 0
-266 -261 c-146 -144 -266 -259 -266 -256 0 3 103 114 228 246 125 132 243
266 261 297 59 96 62 122 69 534 l7 375 25 43 c15 27 42 54 70 70 l45 27 375
6 c232 4 395 11 428 19 29 6 80 30 115 53 86 58 617 584 648 642 22 42 23 47
9 72 -9 16 -23 29 -31 31 -10 2 -172 -150 -405 -378z"/>
<path d="M2020 6151 l-45 -6 45 -19 c60 -24 211 -35 547 -38 l272 -3 5 29 c3
15 3 32 0 37 -6 10 -750 10 -824 0z"/>
<path d="M3757 6028 c-9 -69 -9 -3752 -1 -3851 7 -83 20 -91 52 -33 16 29 17
156 19 1896 2 2001 4 1934 -46 2013 l-18 29 -6 -54z"/>
<path d="M4350 3445 c328 -328 471 -465 487 -465 12 0 43 -9 70 -21 65 -28
213 -38 548 -39 149 0 280 -3 293 -6 l22 -6 0 -442 0 -441 460 -470 c252 -258
464 -471 469 -473 7 -2 11 18 11 53 0 36 5 62 15 71 38 39 40 75 40 834 l0
735 -24 60 c-12 33 -25 80 -28 105 -5 44 -12 53 -466 508 l-462 462 -950 0
-950 0 465 -465z"/>
<path d="M3890 2778 l0 -946 441 -459 c436 -452 442 -458 488 -465 25 -3 73
-17 106 -30 l60 -23 750 0 750 0 56 28 c40 19 71 27 110 27 l54 0 -90 91 c-50
50 -262 259 -472 465 l-382 374 -450 0 -450 0 -7 36 c-4 20 -4 160 -2 312 6
327 -2 462 -31 528 -12 26 -21 61 -21 78 0 28 -38 69 -342 371 -189 187 -394
390 -455 450 l-113 110 0 -947z"/>
<path d="M3752 1707 l-82 -82 89 -89 88 -88 46 7 c40 6 46 10 49 34 2 20 10
27 33 31 27 5 31 10 36 50 l7 45 -86 88 c-48 48 -89 87 -92 87 -3 0 -42 -37
-88 -83z m150 -54 c51 -50 60 -73 29 -73 -18 0 -101 81 -101 98 0 10 11 22 19
22 3 0 27 -21 53 -47z m-63 -60 c38 -45 53 -83 32 -83 -5 0 -32 24 -59 52 -38
39 -48 56 -40 65 16 20 24 16 67 -34z"/>
<path d="M4050 1490 l0 -84 -56 -57 -57 -57 42 -13 42 -12 43 42 43 42 81 -7
c92 -8 100 -1 51 40 -24 20 -41 26 -80 26 l-49 0 0 53 c0 46 -4 57 -30 82
l-30 29 0 -84z"/>
<path d="M4290 1284 c0 -30 6 -46 25 -64 l25 -23 -83 -77 -82 -78 43 -13 43
-12 64 63 65 64 28 -27 c26 -25 92 -39 92 -19 0 4 -49 57 -110 117 l-110 110
0 -41z"/>
<path d="M4452 987 l-82 -82 78 -78 c69 -69 83 -78 110 -75 l32 3 -65 71 c-58
64 -63 73 -48 85 14 12 21 8 57 -34 35 -38 48 -47 76 -47 l33 0 -56 59 c-32
33 -57 64 -57 70 0 29 28 18 79 -33 50 -49 61 -56 96 -56 l40 0 -100 100 c-55
55 -102 100 -105 100 -3 0 -42 -37 -88 -83z"/>
</g>
</svg>
